<svg width="161" height="52" viewBox="0 0 161 52" fill="none" xmlns="http://www.w3.org/2000/svg">
<path d="M6.91319 44.4139V43.8411C6.91319 38.9096 6.91048 33.9784 6.90505 29.0476C6.90505 28.6739 6.98755 28.4921 7.36339 28.3533C9.62455 27.512 11.0057 25.4771 11.0474 22.9725C11.0617 22.074 11.0587 21.1755 11.0474 20.2781C11.0474 19.9779 11.1177 19.8482 11.4437 19.7676C13.714 19.2295 15.5066 17.9828 16.7798 16.0174C16.9611 15.7356 17.175 15.7111 17.4561 15.7111C22.375 15.7152 27.2942 15.7152 32.2137 15.7111H36.9255V18.5515C37.2188 18.5515 37.4633 18.5515 37.7067 18.5515C39.1255 18.5515 40.5403 18.524 41.9296 18.9324C45.8642 20.0882 48.7681 23.6883 48.8934 27.7938C48.9545 29.8021 48.9687 31.8431 48.6896 33.8249C47.9156 39.3261 43.0286 43.8309 37.503 44.3199C36.8817 44.3751 36.2553 44.4036 35.6309 44.4047C26.2807 44.4108 16.9309 44.4139 7.58136 44.4139H6.91319ZM36.9683 38.2153C37.0783 38.2153 37.1292 38.2153 37.1791 38.2153C37.2475 38.2122 37.3156 38.2044 37.3828 38.1918C40.0952 37.5792 41.9133 35.9456 42.6028 33.248C43.0755 31.4 42.9379 29.4703 42.7302 27.5947C42.5835 26.2673 41.7116 25.3668 40.469 24.8951C39.3313 24.4632 38.1467 24.7348 36.9713 24.6511L36.9683 38.2153Z" fill="white"/>
<path d="M36.9459 12.6685H36.2726C29.3601 12.6685 22.4466 12.6657 15.5321 12.6603C15.1776 12.6603 14.9943 12.7624 14.8588 13.0963C13.7945 15.7427 11.8205 17.0129 8.98186 16.9506C8.6763 16.9435 8.37888 16.9506 8.0336 16.9506C8.02341 17.1671 8.00915 17.3457 8.00813 17.5254C8.00813 19.3214 8.01628 21.1184 8.00813 22.9144C7.99897 24.2652 7.21775 25.3076 6.03216 25.5966C4.34241 26.005 2.78913 24.7798 2.77793 22.993C2.76265 20.4343 2.75246 17.8756 2.79015 15.317C2.7983 14.733 2.60885 14.4256 2.12402 14.1234C-0.347973 12.5868 -0.706499 9.29095 1.35197 7.33162C2.07717 6.64141 2.94904 6.2085 3.94008 6.19421C4.66936 6.18195 4.95862 5.8879 5.20409 5.22322C6.21245 2.46648 8.16906 0.680722 11.0485 0.158983C13.7629 -0.334168 16.2522 0.29682 18.2384 2.37663C18.5164 2.66864 18.7945 3.12707 19.1143 3.16587C19.4341 3.20467 19.8028 2.81771 20.143 2.60329C23.9401 0.211054 28.6886 1.44444 30.8377 5.42742C31.1677 6.04003 31.4621 6.26466 32.2005 6.20646C34.9506 5.98694 36.9337 7.89726 36.9438 10.6693C36.9479 11.3115 36.9459 11.9527 36.9459 12.6685Z" fill="white"/>
<path d="M36.9316 47.4953V52H6.9519V47.4953H36.9316Z" fill="white"/>
<path d="M77.0498 12.1C77.0764 12.14 77.1298 12.2133 77.2098 12.32C77.3031 12.4133 77.4364 12.6067 77.6098 12.9C77.7964 13.1933 77.9631 13.5067 78.1098 13.84C78.2698 14.1733 78.4031 14.5933 78.5098 15.1C78.6298 15.5933 78.6898 16.1 78.6898 16.62C78.6898 17.6467 78.5431 18.5733 78.2498 19.4C77.9698 20.2267 77.5831 20.8933 77.0898 21.4C76.6098 21.92 76.0564 22.3133 75.4298 22.58C74.8164 22.86 74.1564 23 73.4498 23H63.3298C63.2098 23 63.1098 22.96 63.0298 22.88C62.9631 22.8133 62.9298 22.72 62.9298 22.6V3.4C62.9298 3.28 62.9631 3.18667 63.0298 3.12C63.1098 3.04 63.2098 3 63.3298 3H72.3298C73.0631 3 73.7498 3.13333 74.3898 3.4C75.0298 3.66667 75.5964 4.05333 76.0898 4.56C76.5831 5.05333 76.9698 5.7 77.2498 6.5C77.5431 7.28667 77.6898 8.17333 77.6898 9.16C77.6898 9.8 77.6364 10.3667 77.5298 10.86C77.4231 11.3533 77.3164 11.6867 77.2098 11.86L77.0498 12.1ZM68.5498 7.86V10.42C68.5498 10.5533 68.6164 10.62 68.7498 10.62H70.5498C70.9498 10.62 71.2964 10.4733 71.5898 10.18C71.8831 9.88667 72.0298 9.54 72.0298 9.14C72.0298 8.72667 71.8831 8.38 71.5898 8.1C71.2964 7.80667 70.9498 7.66 70.5498 7.66H68.7498C68.6164 7.66 68.5498 7.72667 68.5498 7.86ZM71.4498 18.34C71.8631 18.34 72.2098 18.2 72.4898 17.92C72.7831 17.6267 72.9298 17.28 72.9298 16.88C72.9298 16.4667 72.7831 16.1133 72.4898 15.82C72.2098 15.5267 71.8631 15.38 71.4498 15.38H68.7498C68.6164 15.38 68.5498 15.4467 68.5498 15.58V18.14C68.5498 18.2733 68.6164 18.34 68.7498 18.34H71.4498Z" fill="white"/>
<path d="M84.5169 23H79.6969C79.5769 23 79.4769 22.96 79.3969 22.88C79.3303 22.8133 79.2969 22.72 79.2969 22.6V9.96C79.2969 9.85333 79.3303 9.76 79.3969 9.68C79.4769 9.6 79.5769 9.56 79.6969 9.56H84.5169C84.6236 9.56 84.7169 9.6 84.7969 9.68C84.8769 9.76 84.9169 9.85333 84.9169 9.96V22.6C84.9169 22.72 84.8769 22.8133 84.7969 22.88C84.7169 22.96 84.6236 23 84.5169 23ZM84.5169 7.78H79.6969C79.5769 7.78 79.4769 7.74 79.3969 7.66C79.3303 7.58 79.2969 7.48667 79.2969 7.38V3.4C79.2969 3.28 79.3303 3.18667 79.3969 3.12C79.4769 3.04 79.5769 3 79.6969 3H84.5169C84.6236 3 84.7169 3.04 84.7969 3.12C84.8769 3.18667 84.9169 3.28 84.9169 3.4V7.38C84.9169 7.48667 84.8769 7.58 84.7969 7.66C84.7169 7.74 84.6236 7.78 84.5169 7.78Z" fill="white"/>
<path d="M99.0483 13.2C99.5284 14.2133 99.7884 15.3133 99.8284 16.5C99.8417 16.7133 99.7417 16.84 99.5284 16.88L91.9483 18.56C92.2817 18.7333 92.6417 18.82 93.0284 18.82C93.6817 18.82 94.255 18.6133 94.7484 18.2C94.8417 18.12 94.9417 18.0867 95.0483 18.1C95.1684 18.1133 95.255 18.1667 95.3083 18.26L97.3884 21.32C97.5217 21.52 97.5017 21.6933 97.3284 21.84C95.9817 23 94.4217 23.58 92.6484 23.58C91.355 23.58 90.155 23.26 89.0483 22.62C87.955 21.98 87.0883 21.1067 86.4483 20C85.8217 18.9067 85.5083 17.7067 85.5083 16.4C85.5083 16.3867 85.5083 16.38 85.5083 16.38C85.5083 16.1933 85.5217 16 85.5483 15.8C85.695 13.96 86.4483 12.4133 87.8083 11.16C89.1817 9.89333 90.795 9.26 92.6484 9.26C94.035 9.26 95.295 9.61333 96.4284 10.32C97.575 11.0133 98.4483 11.9733 99.0483 13.2ZM93.5483 13.52C93.0284 13.52 92.5417 13.64 92.0883 13.88C91.635 14.1067 91.3083 14.4067 91.1084 14.78C91.0817 14.82 91.0817 14.86 91.1084 14.9C91.135 14.9267 91.1684 14.9333 91.2084 14.92L94.9083 14.12C94.9483 14.1067 94.9684 14.08 94.9684 14.04C94.9817 14 94.975 13.9667 94.9483 13.94C94.5483 13.66 94.0817 13.52 93.5483 13.52ZM94.6084 8.84L96.2683 6.88C96.335 6.8 96.3617 6.70667 96.3484 6.6C96.3484 6.49333 96.3083 6.4 96.2283 6.32L91.6684 2.4C91.575 2.32 91.4684 2.28667 91.3484 2.3C91.2417 2.31333 91.155 2.36667 91.0883 2.46L89.0883 5.2C89.0217 5.29333 88.995 5.4 89.0083 5.52C89.035 5.62667 89.1017 5.70667 89.2084 5.76L94.1084 8.92C94.295 9.02667 94.4617 9 94.6084 8.84Z" fill="white"/>
<path d="M106.371 10.1C107.411 9.74 108.497 9.56 109.631 9.56C109.804 9.56 109.984 9.56667 110.171 9.58C110.277 9.59333 110.364 9.64 110.431 9.72C110.497 9.78667 110.531 9.87333 110.531 9.98V14C110.531 14.1067 110.491 14.2 110.411 14.28C110.331 14.36 110.231 14.3933 110.111 14.38C109.937 14.3667 109.777 14.36 109.631 14.36C108.924 14.36 108.277 14.5 107.691 14.78C107.104 15.06 106.664 15.4267 106.371 15.88V22.6C106.371 22.72 106.331 22.8133 106.251 22.88C106.171 22.96 106.077 23 105.971 23H100.791C100.671 23 100.571 22.96 100.491 22.88C100.424 22.8133 100.391 22.72 100.391 22.6V9.96C100.391 9.85333 100.424 9.76 100.491 9.68C100.571 9.6 100.671 9.56 100.791 9.56H105.971C106.077 9.56 106.164 9.6 106.231 9.68C106.311 9.74667 106.357 9.83333 106.371 9.94V10.1Z" fill="white"/>
<path d="M124.322 13.2C124.802 14.2133 125.062 15.3133 125.102 16.5C125.115 16.7133 125.015 16.84 124.802 16.88L117.222 18.56C117.555 18.7333 117.915 18.82 118.302 18.82C118.955 18.82 119.528 18.6133 120.022 18.2C120.115 18.12 120.215 18.0867 120.322 18.1C120.442 18.1133 120.528 18.1667 120.582 18.26L122.662 21.32C122.795 21.52 122.775 21.6933 122.602 21.84C121.255 23 119.695 23.58 117.922 23.58C116.628 23.58 115.428 23.26 114.322 22.62C113.228 21.98 112.362 21.1067 111.722 20C111.095 18.9067 110.782 17.7067 110.782 16.4C110.782 16.3867 110.782 16.38 110.782 16.38C110.782 16.1933 110.795 16 110.822 15.8C110.968 13.96 111.722 12.4133 113.082 11.16C114.455 9.89333 116.068 9.26 117.922 9.26C119.308 9.26 120.568 9.61333 121.702 10.32C122.848 11.0133 123.722 11.9733 124.322 13.2ZM118.822 13.52C118.302 13.52 117.815 13.64 117.362 13.88C116.908 14.1067 116.582 14.4067 116.382 14.78C116.355 14.82 116.355 14.86 116.382 14.9C116.408 14.9267 116.442 14.9333 116.482 14.92L120.182 14.12C120.222 14.1067 120.242 14.08 120.242 14.04C120.255 14 120.248 13.9667 120.222 13.94C119.822 13.66 119.355 13.52 118.822 13.52Z" fill="white"/>
<path d="M76.4898 39.2C76.9698 40.2133 77.2298 41.3133 77.2698 42.5C77.2831 42.7133 77.1831 42.84 76.9698 42.88L69.3898 44.56C69.7231 44.7333 70.0831 44.82 70.4698 44.82C71.1231 44.82 71.6964 44.6133 72.1898 44.2C72.2831 44.12 72.3831 44.0867 72.4898 44.1C72.6098 44.1133 72.6964 44.1667 72.7498 44.26L74.8298 47.32C74.9631 47.52 74.9431 47.6933 74.7698 47.84C73.4231 49 71.8631 49.58 70.0898 49.58C68.7964 49.58 67.5964 49.26 66.4898 48.62C65.3964 47.98 64.5298 47.1067 63.8898 46C63.2631 44.9067 62.9498 43.7067 62.9498 42.4C62.9498 42.3867 62.9498 42.38 62.9498 42.38C62.9498 42.1933 62.9631 42 62.9898 41.8C63.1364 39.96 63.8898 38.4133 65.2498 37.16C66.6231 35.8933 68.2364 35.26 70.0898 35.26C71.4764 35.26 72.7364 35.6133 73.8698 36.32C75.0164 37.0133 75.8898 37.9733 76.4898 39.2ZM70.9898 39.52C70.4698 39.52 69.9831 39.64 69.5298 39.88C69.0764 40.1067 68.7498 40.4067 68.5498 40.78C68.5231 40.82 68.5231 40.86 68.5498 40.9C68.5764 40.9267 68.6098 40.9333 68.6498 40.92L72.3498 40.12C72.3898 40.1067 72.4098 40.08 72.4098 40.04C72.4231 40 72.4164 39.9667 72.3898 39.94C71.9898 39.66 71.5231 39.52 70.9898 39.52Z" fill="white"/>
<path d="M90.5721 49H85.9921C85.8854 48.9867 85.7921 48.94 85.7121 48.86C85.6454 48.7933 85.6121 48.7067 85.6121 48.6V40.66C85.6121 40.5 85.5721 40.3467 85.4921 40.2C85.3188 39.88 85.0588 39.72 84.7121 39.72C84.4588 39.72 84.2454 39.8133 84.0721 40C83.8988 40.1733 83.8121 40.3933 83.8121 40.66V48.6C83.8121 48.7067 83.7721 48.8 83.6921 48.88C83.6121 48.96 83.5188 49 83.4121 49H78.2321C78.1121 49 78.0121 48.96 77.9321 48.88C77.8654 48.8133 77.8321 48.72 77.8321 48.6V35.66C77.8321 35.5533 77.8654 35.46 77.9321 35.38C78.0121 35.3 78.1121 35.26 78.2321 35.26H82.0921C82.8121 35.0733 83.5788 34.98 84.3921 34.98C85.4454 34.98 86.3921 35.1333 87.2321 35.44C88.0721 35.7467 88.7588 36.1667 89.2921 36.7C89.8388 37.2333 90.2521 37.86 90.5321 38.58C90.8254 39.2867 90.9721 40.0533 90.9721 40.88V48.6C90.9721 48.72 90.9321 48.8133 90.8521 48.88C90.7721 48.96 90.6788 49 90.5721 49Z" fill="white"/>
<path d="M110.799 35.8C110.866 35.64 110.986 35.56 111.159 35.56H116.119C116.226 35.56 116.319 35.6 116.399 35.68C116.479 35.76 116.519 35.8533 116.519 35.96V36.2C116.519 36.2533 116.506 36.3067 116.479 36.36L111.179 48.76C111.112 48.92 110.992 49 110.819 49H105.719C105.546 49 105.432 48.92 105.379 48.76L100.079 36.36C100.052 36.3067 100.039 36.2533 100.039 36.2V35.96C100.039 35.8533 100.072 35.76 100.139 35.68C100.219 35.6 100.319 35.56 100.439 35.56H105.399C105.572 35.56 105.692 35.64 105.759 35.8L108.279 41.56L110.799 35.8Z" fill="white"/>
<path d="M117.47 35.58H122.05C122.157 35.58 122.243 35.62 122.31 35.7C122.39 35.78 122.43 35.8667 122.43 35.96V43.9C122.43 44.06 122.47 44.2133 122.55 44.36C122.723 44.6933 122.99 44.86 123.35 44.86C123.59 44.86 123.797 44.7667 123.97 44.58C124.157 44.3933 124.25 44.1667 124.25 43.9V35.98C124.25 35.8733 124.283 35.78 124.35 35.7C124.43 35.62 124.523 35.58 124.63 35.58L129.49 35.56C129.597 35.56 129.69 35.6 129.77 35.68C129.85 35.76 129.89 35.8533 129.89 35.96V48.88C129.89 48.9867 129.85 49.08 129.77 49.16C129.69 49.24 129.597 49.28 129.49 49.28L125.95 49.3C125.23 49.4867 124.463 49.58 123.65 49.58C122.597 49.58 121.65 49.4267 120.81 49.12C119.97 48.8133 119.283 48.3933 118.75 47.86C118.217 47.3267 117.803 46.7 117.51 45.98C117.23 45.2733 117.09 44.5133 117.09 43.7V35.96C117.09 35.8533 117.123 35.7667 117.19 35.7C117.27 35.62 117.363 35.58 117.47 35.58Z" fill="white"/>
<path d="M144.029 39.2C144.509 40.2133 144.769 41.3133 144.809 42.5C144.822 42.7133 144.722 42.84 144.509 42.88L136.929 44.56C137.262 44.7333 137.622 44.82 138.009 44.82C138.662 44.82 139.235 44.6133 139.729 44.2C139.822 44.12 139.922 44.0867 140.029 44.1C140.149 44.1133 140.235 44.1667 140.289 44.26L142.369 47.32C142.502 47.52 142.482 47.6933 142.309 47.84C140.962 49 139.402 49.58 137.629 49.58C136.335 49.58 135.135 49.26 134.029 48.62C132.935 47.98 132.069 47.1067 131.429 46C130.802 44.9067 130.489 43.7067 130.489 42.4C130.489 42.3867 130.489 42.38 130.489 42.38C130.489 42.1933 130.502 42 130.529 41.8C130.675 39.96 131.429 38.4133 132.789 37.16C134.162 35.8933 135.775 35.26 137.629 35.26C139.015 35.26 140.275 35.6133 141.409 36.32C142.555 37.0133 143.429 37.9733 144.029 39.2ZM138.529 39.52C138.009 39.52 137.522 39.64 137.069 39.88C136.615 40.1067 136.289 40.4067 136.089 40.78C136.062 40.82 136.062 40.86 136.089 40.9C136.115 40.9267 136.149 40.9333 136.189 40.92L139.889 40.12C139.929 40.1067 139.949 40.08 139.949 40.04C139.962 40 139.955 39.9667 139.929 39.94C139.529 39.66 139.062 39.52 138.529 39.52Z" fill="white"/>
<path d="M160.587 42.42H155.767C155.647 42.42 155.547 42.3867 155.467 42.32C155.401 42.24 155.367 42.14 155.367 42.02V29.4C155.367 29.28 155.401 29.1867 155.467 29.12C155.547 29.04 155.647 29 155.767 29H160.587C160.694 29 160.787 29.04 160.867 29.12C160.947 29.1867 160.987 29.28 160.987 29.4V42.04C160.987 42.1467 160.947 42.24 160.867 42.32C160.787 42.3867 160.694 42.42 160.587 42.42ZM160.587 49H155.767C155.647 49 155.547 48.96 155.467 48.88C155.401 48.8133 155.367 48.72 155.367 48.6V44.6C155.367 44.4933 155.401 44.4067 155.467 44.34C155.547 44.26 155.647 44.22 155.767 44.22H160.587C160.694 44.22 160.787 44.26 160.867 44.34C160.947 44.4067 160.987 44.4933 160.987 44.6V48.6C160.987 48.72 160.947 48.8133 160.867 48.88C160.787 48.96 160.694 49 160.587 49Z" fill="white"/>
</svg>
